<svg width="34" height="28" viewBox="0 0 34 28" fill="none" xmlns="http://www.w3.org/2000/svg">
<path d="M16.5996 0.300171C17.0338 0.300171 17.4156 0.595922 17.5156 1.01892V1.02087C17.5159 1.02217 17.517 1.02441 17.5176 1.02673C17.5187 1.03133 17.5194 1.038 17.5215 1.04626C17.5257 1.0631 17.532 1.08745 17.54 1.11853C17.5562 1.18101 17.5804 1.27169 17.6123 1.38611C17.6761 1.61496 17.772 1.94054 17.9014 2.33435C18.1604 3.12266 18.5535 4.18187 19.0938 5.28845C20.1838 7.5212 21.8344 9.86542 24.125 10.6547C26.1862 11.364 28.618 10.7166 31.3779 8.57068L31.3789 8.5697C31.7145 8.31026 32.1866 8.30722 32.5254 8.55896L32.6436 8.66345C32.8946 8.92643 32.9727 9.31687 32.8271 9.66052L28.1934 20.5961C28.0456 20.9428 27.7035 21.1653 27.3262 21.1654H5.875C5.49714 21.1654 5.15561 20.9428 5.00781 20.5961H5.00684L0.37207 9.66052V9.65955C0.206995 9.26743 0.331471 8.81415 0.673828 8.55896L0.674805 8.55798C1.01289 8.30828 1.48422 8.31178 1.81934 8.56873L1.82129 8.57068C4.58183 10.7171 7.01203 11.3695 9.0752 10.6547L9.28809 10.5756C11.4685 9.7186 13.0507 7.45239 14.1064 5.28943C14.6466 4.18276 15.0389 3.12274 15.2979 2.33435C15.4272 1.94057 15.5231 1.61496 15.5869 1.38611C15.6188 1.27169 15.643 1.18101 15.6592 1.11853C15.6672 1.08744 15.6735 1.0631 15.6777 1.04626C15.6798 1.03791 15.6815 1.03134 15.6826 1.02673C15.6832 1.02445 15.6833 1.02215 15.6836 1.02087L15.6846 1.0199C15.7842 0.596324 16.1655 0.300303 16.5996 0.300171ZM16.5996 4.28552C16.1071 5.54951 15.4004 7.0694 14.4365 8.47107C13.2724 10.1639 11.7174 11.7114 9.69727 12.4086C7.69086 13.102 5.53548 12.8517 3.28223 11.7152L6.5 19.307H26.7012L29.917 11.7142C27.6651 12.8495 25.5099 13.1007 23.5029 12.4086C21.4824 11.7114 19.9277 10.1646 18.7637 8.47205C17.7996 7.07024 17.0924 5.55001 16.5996 4.28552Z" fill="#AC936F" stroke="#AC936F" stroke-width="0.6"/>
<path d="M27.3262 19.5664C27.8455 19.5664 28.2665 19.9867 28.2666 20.5059V26.0645C28.2664 26.5833 27.8453 27.0039 27.3262 27.0039H5.87598C5.35684 27.0039 4.93579 26.5833 4.93555 26.0645V20.5059C4.93567 19.9867 5.35666 19.5664 5.87598 19.5664C6.39506 19.5666 6.81531 19.9872 6.81543 20.5059V25.124H26.3867V20.5059C26.3868 19.9872 26.8066 19.5665 27.3262 19.5664Z" fill="#AC936F" stroke="#AC936F" stroke-width="0.6"/>
</svg>
