<svg width="29" height="29" viewBox="0 0 29 29" fill="none" xmlns="http://www.w3.org/2000/svg">
<mask id="mask0_702_332" style="mask-type:luminance" maskUnits="userSpaceOnUse" x="0" y="13" width="29" height="16">
<path d="M28.5996 13.2344V28.5986H0.399414V13.2344H28.5996Z" fill="white" stroke="white" stroke-width="0.4"/>
</mask>
<g mask="url(#mask0_702_332)">
<path d="M27.4717 13.2706C28.0947 13.2708 28.5999 13.7762 28.5996 14.3995C28.5996 16.3157 28.2241 18.1756 27.4834 19.9269C27.1274 20.7682 26.6868 21.58 26.1738 22.339C25.6661 23.0908 25.0827 23.7973 24.4404 24.4396C23.7982 25.0818 23.0916 25.6652 22.3398 26.173C21.5808 26.686 20.7694 27.1265 19.9277 27.4825C18.1763 28.2234 16.3162 28.5988 14.4004 28.5988H14.3984C13.0494 28.5987 11.7141 28.4096 10.4297 28.0363C9.18443 27.6744 7.9934 27.1414 6.89062 26.4532C5.22893 25.4162 3.80556 24.0503 2.70215 22.4493L2.70312 24.2931C2.70309 24.9164 2.1975 25.422 1.57422 25.422C0.950855 25.422 0.445347 24.9163 0.445312 24.2931V19.8253C0.445389 19.526 0.564822 19.239 0.776367 19.0275C0.988021 18.8157 1.27503 18.6974 1.57422 18.6974H6.04199C6.66503 18.6976 7.16977 19.2023 7.16992 19.8253C7.16992 20.4485 6.66513 20.954 6.04199 20.9542H4.41309C6.60899 24.3064 10.3278 26.3418 14.3984 26.3419H14.4004C20.9846 26.3415 26.3421 20.984 26.3428 14.3995C26.3428 13.7762 26.8484 13.2706 27.4717 13.2706Z" fill="#AC936F" stroke="#AC936F" stroke-width="0.4"/>
</g>
<mask id="mask1_702_332" style="mask-type:luminance" maskUnits="userSpaceOnUse" x="-1" y="-1" width="30" height="17">
<path d="M27.8662 0.198608V15.5883H0.199219V0.198608H27.8662Z" fill="white" stroke="white" stroke-width="0.4"/>
</mask>
<g mask="url(#mask1_702_332)">
<path d="M14.3994 0.199829C15.749 0.199829 17.0859 0.389553 18.3711 0.763306C19.6161 1.12538 20.8063 1.65775 21.9092 2.34631C23.3159 3.22444 24.5527 4.33828 25.5684 5.63049V3.89905C25.5686 3.27619 26.0742 2.77112 26.6973 2.77112C27.3205 2.77128 27.8252 3.27689 27.8252 3.90002V8.58655C27.8252 9.20945 27.3205 9.7153 26.6973 9.71545H22.0098C21.3864 9.71545 20.8812 9.21041 20.8809 8.58752C20.8809 7.96436 21.3859 7.45878 22.0088 7.45862H24.1221C21.8995 4.33651 18.3119 2.45667 14.3994 2.45667C11.2087 2.45674 8.20991 3.69917 5.9541 5.95471C3.69844 8.21049 2.45684 11.2087 2.45703 14.399C2.45703 14.9835 2.01344 15.4642 1.44434 15.5221L1.3291 15.528C0.705793 15.528 0.200195 15.0224 0.200195 14.399C0.199961 12.4831 0.575904 10.623 1.31641 8.8717C1.67239 8.03016 2.11243 7.21867 2.625 6.45959C3.1327 5.70786 3.71618 5.00125 4.3584 4.35901C5.00066 3.71675 5.7073 3.13357 6.45898 2.62561C7.21798 2.11289 8.03035 1.67208 8.87207 1.31604C10.6233 0.575629 12.4833 0.199868 14.3994 0.199829Z" fill="#AC936F" stroke="#AC936F" stroke-width="0.4"/>
</g>
</svg>
