<svg width="31" height="31" viewBox="0 0 31 31" fill="none" xmlns="http://www.w3.org/2000/svg">
<path d="M21.3926 0.153503C21.7696 0.170908 22.1426 0.252922 22.4922 0.396667C22.8918 0.561016 23.2555 0.802678 23.5615 1.1076V1.10858L29.4922 7.03827V7.03925C30.1055 7.65931 30.4502 8.49621 30.4502 9.36835C30.4501 10.1858 30.1475 10.9723 29.6045 11.5783L29.4922 11.6974C28.2153 12.9765 26.1089 12.9765 24.832 11.6974L24.1953 11.0627L11.0645 24.1984L11.7002 24.8351C12.3129 25.4551 12.6562 26.2917 12.6562 27.1633C12.6562 28.0349 12.3128 28.8714 11.7002 29.4914V29.4924C10.4652 30.7316 8.44966 30.7701 7.16406 29.6086L7.04199 29.4924L1.10742 23.5627V23.5617C0.494111 22.9417 0.149478 22.1047 0.149414 21.2326C0.149414 20.3605 0.49411 19.5236 1.10742 18.9035L1.1084 18.9016C1.72911 18.2881 2.56677 17.9446 3.43945 17.9445C4.25785 17.9445 5.04558 18.2467 5.65234 18.7902L5.77148 18.9016V18.9025L6.40527 19.5344L19.5361 6.4035L18.9023 5.76776H18.9014C18.288 5.14768 17.9443 4.30987 17.9443 3.43768C17.9444 2.56562 18.2881 1.72858 18.9014 1.10858H18.9023C19.5402 0.468611 20.3859 0.149706 21.2305 0.149597L21.3926 0.153503ZM3.4375 20.3224C3.31928 20.324 3.20234 20.3489 3.09375 20.3957C2.98497 20.4426 2.88615 20.5108 2.80371 20.5959L2.7998 20.5998C2.71421 20.6813 2.64623 20.7793 2.59961 20.8879C2.55298 20.9966 2.52832 21.1143 2.52832 21.2326C2.52835 21.3508 2.55301 21.4677 2.59961 21.5764C2.63464 21.658 2.6816 21.7338 2.73926 21.801L2.7998 21.8654L2.80273 21.8674L8.73633 27.798L8.73926 27.8L8.80371 27.8615C8.87069 27.9189 8.94598 27.9663 9.02734 28.0012C9.13609 28.0478 9.25375 28.0715 9.37207 28.0715C9.49022 28.0714 9.60722 28.0477 9.71582 28.0012C9.82456 27.9545 9.92331 27.8857 10.0049 27.8L10.0098 27.7951C10.0953 27.7137 10.1633 27.6156 10.21 27.507C10.2566 27.3983 10.2812 27.2806 10.2812 27.1623C10.2812 27.0441 10.2565 26.9272 10.21 26.8185C10.1633 26.7098 10.0955 26.611 10.0098 26.5295L10.0068 26.5275L9.37402 25.8967L9.34766 25.926L9.2373 25.8166L5.52637 22.1096V22.1086L4.7832 21.3664L4.67383 21.257L4.70312 21.2287L4.07227 20.5969C3.88791 20.4127 3.66003 20.3227 3.4375 20.3224ZM8.09961 21.2326L9.37012 22.5031L22.501 9.36835L21.2305 8.09784L8.09961 21.2326ZM21.2305 2.53241C21.1127 2.53325 20.9961 2.55764 20.8877 2.6037C20.779 2.64992 20.6801 2.71741 20.5977 2.80194L20.5938 2.80585C20.5082 2.88734 20.4401 2.98536 20.3936 3.09393C20.347 3.20256 20.3233 3.31949 20.3232 3.43768C20.3232 3.556 20.3469 3.67366 20.3936 3.78241C20.4401 3.89096 20.5082 3.98903 20.5938 4.0705L26.5293 10.006C26.6107 10.0916 26.7088 10.1596 26.8174 10.2062C26.9261 10.2529 27.0438 10.2775 27.1621 10.2775C27.2803 10.2775 27.3972 10.2528 27.5059 10.2062C27.6146 10.1596 27.7134 10.0918 27.7949 10.006L27.7998 10.0002L27.8604 9.93671C27.918 9.86952 27.965 9.79378 28 9.7121C28.0466 9.60344 28.0713 9.48657 28.0713 9.36835C28.0713 9.25003 28.0466 9.13237 28 9.02362C27.9534 8.91504 27.8854 8.817 27.7998 8.73553L21.8672 2.80292C21.6835 2.61921 21.4569 2.53241 21.2305 2.53241Z" fill="#AC936F" stroke="#AC936F" stroke-width="0.3"/>
</svg>
