<svg width="42" height="26" viewBox="0 0 42 26" fill="none" xmlns="http://www.w3.org/2000/svg">
<path d="M1.09961 17.1269H7.68205L8.43098 15.7456C9.00116 14.6949 10.5491 14.8863 10.8532 16.0433L11.8537 19.8434C11.8719 19.913 11.9008 19.9781 11.9401 20.0385C11.9797 20.0986 12.0275 20.1512 12.0836 20.1957C12.14 20.2401 12.2018 20.2744 12.269 20.2989C12.3366 20.3229 12.4061 20.3358 12.4773 20.3372C12.5489 20.3386 12.6188 20.3284 12.687 20.3067C12.7552 20.2853 12.8184 20.253 12.8762 20.211C12.9343 20.1685 12.984 20.118 13.0254 20.0592C13.067 20.0005 13.0983 19.9364 13.1194 19.8675L15.466 12.1091C15.8722 10.7698 17.7457 10.7614 18.163 12.0972L21.7256 23.5152C21.9739 24.3097 23.0944 24.2894 23.3138 23.486L25.0996 16.9667" stroke="#AC936F" stroke-width="2.2" stroke-linecap="round" stroke-linejoin="round"/>
<path d="M20.0996 16.1L24.8664 1.09998L28.248 13.4184C28.5826 14.6379 30.3349 14.6819 30.7361 13.4811L31.123 12.316C31.4835 11.2296 33.0141 11.1244 33.5268 12.1498L34.0086 13.1054H40.0996" stroke="#AC936F" stroke-width="2.2" stroke-linecap="round" stroke-linejoin="round"/>
</svg>
