<svg width="117" height="43" viewBox="0 0 117 43" fill="none" xmlns="http://www.w3.org/2000/svg">
<path d="M43 21.5C43 9.62587 33.3741 0 21.5 0C9.62587 0 0 9.62587 0 21.5C0 32.2313 7.86224 41.1259 18.1406 42.7388V27.7148H12.6816V21.5H18.1406V16.7633C18.1406 11.3748 21.3504 8.39844 26.2615 8.39844C28.6138 8.39844 31.0742 8.81836 31.0742 8.81836V14.1094H28.3631C25.6923 14.1094 24.8594 15.7667 24.8594 17.4669V21.5H30.8223L29.869 27.7148H24.8594V42.7388C35.1378 41.1259 43 32.2313 43 21.5Z" fill="#E8E8E8"/>
<path d="M88.0097 1.14353C85.8285 1.24637 84.339 1.59453 83.0368 2.106C81.6892 2.63132 80.5469 3.336 79.4103 4.47666C78.2739 5.61731 77.5739 6.76036 77.0525 8.11028C76.5478 9.41511 76.2058 10.906 76.1095 13.0884C76.0131 15.2708 75.9918 15.9724 76.0025 21.5395C76.0131 27.1063 76.0377 27.8041 76.1435 29.9911C76.2477 32.1718 76.5945 33.661 77.1061 34.9636C77.6323 36.3113 78.3361 37.4531 79.4773 38.59C80.6183 39.7269 81.7605 40.4253 83.1135 40.9475C84.4173 41.4515 85.9085 41.795 88.0905 41.8905C90.2726 41.9862 90.9749 42.0084 96.5403 41.9976C102.106 41.987 102.806 41.9623 104.993 41.8586C107.179 41.7549 108.661 41.4055 109.964 40.8963C111.311 40.3691 112.454 39.6663 113.59 38.5249C114.726 37.3834 115.426 36.2395 115.947 34.8889C116.452 33.5851 116.795 32.0941 116.89 29.9136C116.985 27.7254 117.008 27.0268 116.997 21.4607C116.987 15.8945 116.962 15.1966 116.858 13.0105C116.754 10.8243 116.407 9.33977 115.896 8.03631C115.369 6.68861 114.666 5.54761 113.525 4.40986C112.384 3.27211 111.239 2.57306 109.89 2.05322C108.585 1.5484 107.095 1.20452 104.912 1.11022C102.73 1.01592 102.028 0.991487 96.4607 1.00242C90.8932 1.01301 90.1962 1.03693 88.0097 1.14353ZM88.2492 38.2026C86.2505 38.1156 85.1652 37.7835 84.4419 37.5056C83.4842 37.1366 82.8019 36.6905 82.0811 35.9766C81.3602 35.2629 80.9176 34.5782 80.5436 33.6225C80.2628 32.8992 79.9245 31.8151 79.8311 29.8164C79.7294 27.6562 79.7081 27.0075 79.6961 21.5344C79.6842 16.0614 79.7052 15.4134 79.7998 13.2524C79.8852 11.2553 80.2194 10.1688 80.4968 9.44586C80.8658 8.48697 81.3103 7.80586 82.0258 7.08562C82.7412 6.36522 83.4239 5.92157 84.3804 5.54761C85.103 5.26557 86.1869 4.93022 88.1848 4.83507C90.3467 4.73257 90.9945 4.71207 96.4668 4.70011C101.939 4.68815 102.589 4.70865 104.751 4.80397C106.748 4.89076 107.835 5.22166 108.558 5.50097C109.516 5.86997 110.198 6.31312 110.918 7.02993C111.638 7.74641 112.082 8.42667 112.456 9.38521C112.739 10.1056 113.074 11.1892 113.168 13.1885C113.271 15.3504 113.295 15.9987 113.304 21.4705C113.314 26.9423 113.295 27.5921 113.2 29.7525C113.113 31.7512 112.782 32.8369 112.503 33.561C112.134 34.5184 111.689 35.201 110.973 35.9209C110.258 36.641 109.576 37.0845 108.619 37.4584C107.897 37.7401 106.812 38.0763 104.816 38.1715C102.654 38.2731 102.006 38.2945 96.5316 38.3064C91.0572 38.3184 90.4111 38.2962 88.2492 38.2026ZM104.961 10.5435C104.962 11.03 105.107 11.5055 105.378 11.9096C105.649 12.3137 106.034 12.6284 106.484 12.8138C106.934 12.9992 107.429 13.047 107.906 12.9512C108.383 12.8554 108.821 12.6203 109.164 12.2756C109.507 11.9309 109.741 11.492 109.835 11.0146C109.929 10.5372 109.879 10.0426 109.692 9.59346C109.505 9.14428 109.189 8.76068 108.784 8.49117C108.379 8.22166 107.903 8.07835 107.416 8.07936C106.764 8.08072 106.139 8.34106 105.679 8.80314C105.218 9.26522 104.96 9.89121 104.961 10.5435ZM85.9741 21.5205C85.9855 27.3343 90.7072 32.0365 96.5196 32.0256C102.332 32.0145 107.038 27.2933 107.027 21.4795C107.016 15.6657 102.293 10.9622 96.4796 10.9736C90.6662 10.9851 85.9631 15.7074 85.9741 21.5205ZM89.6666 21.5132C89.664 20.1617 90.0621 18.8398 90.8108 17.7145C91.5594 16.5893 92.6249 15.7114 93.8725 15.1917C95.12 14.672 96.4937 14.534 97.8198 14.795C99.1458 15.0561 100.365 15.7045 101.322 16.6582C102.28 17.612 102.933 18.8282 103.199 20.1532C103.466 21.4782 103.333 22.8525 102.818 24.1021C102.304 25.3518 101.43 26.4207 100.308 27.1738C99.1855 27.9269 97.8651 28.3303 96.5136 28.333C95.6162 28.3349 94.7272 28.16 93.8974 27.8183C93.0676 27.4765 92.3133 26.9747 91.6775 26.3414C91.0416 25.7081 90.5368 24.9557 90.1918 24.1273C89.8468 23.2989 89.6683 22.4106 89.6666 21.5132Z" fill="#E8E8E8"/>
</svg>
